{
    "asset" : {
        "generator" : "Khronos glTF Blender I/O v0.9.36",
        "version" : "2.0"
    },
    "scene" : 0,
    "scenes" : [
        {
            "name" : "Scene",
            "nodes" : [
                0,
                1,
                2,
                3,
                4,
                5,
                6,
                7,
                8
            ]
        }
    ],
    "nodes" : [
        {
            "name" : "Light",
            "rotation" : [
                0.06328032165765762,
                0.9077656865119934,
                -0.31410107016563416,
                0.2707352638244629
            ],
            "scale" : [
                0.5319181680679321,
                0.5319183468818665,
                0.5319182276725769
            ],
            "translation" : [
                -0.31828752160072327,
                1.5735787153244019,
                2.5308797359466553
            ]
        },
        {
            "name" : "Camera",
            "rotation" : [
                0.483536034822464,
                0.33687159419059753,
                -0.20870360732078552,
                0.7804827094078064
            ],
            "translation" : [
                5.807202339172363,
                6.67927360534668,
                6.925790786743164
            ]
        },
        {
            "mesh" : 0,
            "name" : "Circle",
            "rotation" : [
                0,
                0.34952691197395325,
                0,
                0.9369263052940369
            ],
            "scale" : [
                0.5319182872772217,
                0.5319182276725769,
                0.5319182872772217
            ],
            "translation" : [
                -0.24309715628623962,
                0.5366483926773071,
                -0.5482189655303955
            ]
        },
        {
            "mesh" : 1,
            "name" : "Cylinder",
            "rotation" : [
                -0.24715286493301392,
                0.24715285003185272,
                -0.6625069379806519,
                0.6625069975852966
            ],
            "scale" : [
                0.5319182276725769,
                0.5319182872772217,
                0.5319182872772217
            ],
            "translation" : [
                -0.24309715628623962,
                1.202602744102478,
                -0.5482189655303955
            ]
        },
        {
            "mesh" : 2,
            "name" : "Icosphere",
            "scale" : [
                0.25292524695396423,
                0.25292524695396423,
                0.25292524695396423
            ],
            "translation" : [
                -0.5434629917144775,
                0.7067091464996338,
                0.036025092005729675
            ]
        },
        {
            "name" : "Light.001",
            "rotation" : [
                0.06328032165765762,
                0.9077656865119934,
                -0.31410107016563416,
                0.2707352638244629
            ],
            "scale" : [
                0.5319181680679321,
                0.5319183468818665,
                0.5319182276725769
            ],
            "translation" : [
                0.036830246448516846,
                2.169614791870117,
                2.011976480484009
            ]
        },
        {
            "name" : "Light.002",
            "rotation" : [
                0.06328032165765762,
                0.9077656865119934,
                -0.31410107016563416,
                0.2707352638244629
            ],
            "scale" : [
                0.5319181680679321,
                0.5319183468818665,
                0.5319182276725769
            ],
            "translation" : [
                -2.636673927307129,
                1.8625730276107788,
                -2.0683910846710205
            ]
        },
        {
            "mesh" : 3,
            "name" : "Cube.006",
            "scale" : [
                0.2690693140029907,
                0.2690693140029907,
                0.2690693140029907
            ],
            "translation" : [
                -0.9359244108200073,
                0.49955427646636963,
                0.036025092005729675
            ]
        },
        {
            "mesh" : 4,
            "name" : "Cube.000",
            "scale" : [
                0.2690693140029907,
                0.2690693140029907,
                0.2690693140029907
            ],
            "translation" : [
                -0.9359244108200073,
                0.49955427646636963,
                0.036025092005729675
            ]
        }
    ],
    "materials" : [
        {
            "doubleSided" : true,
            "name" : "blue.paint",
            "pbrMetallicRoughness" : {}
        },
        {
            "doubleSided" : true,
            "name" : "Material.001",
            "pbrMetallicRoughness" : {}
        },
        {
            "doubleSided" : true,
            "name" : "grass",
            "pbrMetallicRoughness" : {}
        }
    ],
    "meshes" : [
        {
            "name" : "Circle",
            "primitives" : [
                {
                    "attributes" : {
                        "POSITION" : 0,
                        "NORMAL" : 1,
                        "TANGENT" : 2,
                        "TEXCOORD_0" : 3
                    },
                    "indices" : 4,
                    "material" : 0
                }
            ]
        },
        {
            "name" : "Cylinder",
            "primitives" : [
                {
                    "attributes" : {
                        "POSITION" : 5,
                        "NORMAL" : 6,
                        "TANGENT" : 7,
                        "TEXCOORD_0" : 8
                    },
                    "indices" : 9,
                    "material" : 0
                }
            ]
        },
        {
            "name" : "Icosphere",
            "primitives" : [
                {
                    "attributes" : {
                        "POSITION" : 10,
                        "NORMAL" : 11,
                        "TANGENT" : 12,
                        "TEXCOORD_0" : 13
                    },
                    "indices" : 14
                }
            ]
        },
        {
            "name" : "Cube.003",
            "primitives" : [
                {
                    "attributes" : {
                        "POSITION" : 15,
                        "NORMAL" : 16,
                        "TEXCOORD_0" : 17
                    },
                    "indices" : 18,
                    "material" : 1
                }
            ]
        },
        {
            "name" : "Cube.000",
            "primitives" : [
                {
                    "attributes" : {
                        "POSITION" : 19,
                        "NORMAL" : 20,
                        "TEXCOORD_0" : 21
                    },
                    "indices" : 22,
                    "material" : 2
                }
            ]
        }
    ],
    "accessors" : [
        {
            "bufferView" : 0,
            "componentType" : 5126,
            "count" : 256,
            "max" : [
                1,
                0.2568660080432892,
                1
            ],
            "min" : [
                -1,
                0,
                -1
            ],
            "type" : "VEC3"
        },
        {
            "bufferView" : 1,
            "componentType" : 5126,
            "count" : 256,
            "type" : "VEC3"
        },
        {
            "bufferView" : 2,
            "componentType" : 5126,
            "count" : 256,
            "type" : "VEC4"
        },
        {
            "bufferView" : 3,
            "componentType" : 5126,
            "count" : 256,
            "type" : "VEC2"
        },
        {
            "bufferView" : 4,
            "componentType" : 5123,
            "count" : 384,
            "type" : "SCALAR"
        },
        {
            "bufferView" : 5,
            "componentType" : 5126,
            "count" : 1536,
            "max" : [
                1,
                0.07000000774860382,
                1
            ],
            "min" : [
                -1,
                -0.07000000774860382,
                -1
            ],
            "type" : "VEC3"
        },
        {
            "bufferView" : 6,
            "componentType" : 5126,
            "count" : 1536,
            "type" : "VEC3"
        },
        {
            "bufferView" : 7,
            "componentType" : 5126,
            "count" : 1536,
            "type" : "VEC4"
        },
        {
            "bufferView" : 8,
            "componentType" : 5126,
            "count" : 1536,
            "type" : "VEC2"
        },
        {
            "bufferView" : 9,
            "componentType" : 5123,
            "count" : 2304,
            "type" : "SCALAR"
        },
        {
            "bufferView" : 10,
            "componentType" : 5126,
            "count" : 120,
            "max" : [
                -2.429939031600952,
                -0.31828591227531433,
                3.7746620178222656
            ],
            "min" : [
                -3.068814754486084,
                -0.8129358887672424,
                2.7855591773986816
            ],
            "type" : "VEC3"
        },
        {
            "bufferView" : 11,
            "componentType" : 5126,
            "count" : 120,
            "type" : "VEC3"
        },
        {
            "bufferView" : 12,
            "componentType" : 5126,
            "count" : 120,
            "type" : "VEC4"
        },
        {
            "bufferView" : 13,
            "componentType" : 5126,
            "count" : 120,
            "type" : "VEC2"
        },
        {
            "bufferView" : 14,
            "componentType" : 5123,
            "count" : 120,
            "type" : "SCALAR"
        },
        {
            "bufferView" : 15,
            "componentType" : 5126,
            "count" : 300,
            "max" : [
                7.3531599044799805,
                -0.09402573108673096,
                5.48710298538208
            ],
            "min" : [
                -4.096041679382324,
                -1.926357388496399,
                -5.962099075317383
            ],
            "type" : "VEC3"
        },
        {
            "bufferView" : 16,
            "componentType" : 5126,
            "count" : 300,
            "type" : "VEC3"
        },
        {
            "bufferView" : 17,
            "componentType" : 5126,
            "count" : 300,
            "type" : "VEC2"
        },
        {
            "bufferView" : 18,
            "componentType" : 5123,
            "count" : 534,
            "type" : "SCALAR"
        },
        {
            "bufferView" : 19,
            "componentType" : 5126,
            "count" : 894,
            "max" : [
                7.353160381317139,
                0.15438605844974518,
                5.48710298538208
            ],
            "min" : [
                -4.096042156219482,
                -0.7215915322303772,
                -5.962099552154541
            ],
            "type" : "VEC3"
        },
        {
            "bufferView" : 20,
            "componentType" : 5126,
            "count" : 894,
            "type" : "VEC3"
        },
        {
            "bufferView" : 21,
            "componentType" : 5126,
            "count" : 894,
            "type" : "VEC2"
        },
        {
            "bufferView" : 22,
            "componentType" : 5123,
            "count" : 2274,
            "type" : "SCALAR"
        }
    ],
    "bufferViews" : [
        {
            "buffer" : 0,
            "byteLength" : 3072,
            "byteOffset" : 0
        },
        {
            "buffer" : 0,
            "byteLength" : 3072,
            "byteOffset" : 3072
        },
        {
            "buffer" : 0,
            "byteLength" : 4096,
            "byteOffset" : 6144
        },
        {
            "buffer" : 0,
            "byteLength" : 2048,
            "byteOffset" : 10240
        },
        {
            "buffer" : 0,
            "byteLength" : 768,
            "byteOffset" : 12288
        },
        {
            "buffer" : 0,
            "byteLength" : 18432,
            "byteOffset" : 13056
        },
        {
            "buffer" : 0,
            "byteLength" : 18432,
            "byteOffset" : 31488
        },
        {
            "buffer" : 0,
            "byteLength" : 24576,
            "byteOffset" : 49920
        },
        {
            "buffer" : 0,
            "byteLength" : 12288,
            "byteOffset" : 74496
        },
        {
            "buffer" : 0,
            "byteLength" : 4608,
            "byteOffset" : 86784
        },
        {
            "buffer" : 0,
            "byteLength" : 1440,
            "byteOffset" : 91392
        },
        {
            "buffer" : 0,
            "byteLength" : 1440,
            "byteOffset" : 92832
        },
        {
            "buffer" : 0,
            "byteLength" : 1920,
            "byteOffset" : 94272
        },
        {
            "buffer" : 0,
            "byteLength" : 960,
            "byteOffset" : 96192
        },
        {
            "buffer" : 0,
            "byteLength" : 240,
            "byteOffset" : 97152
        },
        {
            "buffer" : 0,
            "byteLength" : 3600,
            "byteOffset" : 97392
        },
        {
            "buffer" : 0,
            "byteLength" : 3600,
            "byteOffset" : 100992
        },
        {
            "buffer" : 0,
            "byteLength" : 2400,
            "byteOffset" : 104592
        },
        {
            "buffer" : 0,
            "byteLength" : 1068,
            "byteOffset" : 106992
        },
        {
            "buffer" : 0,
            "byteLength" : 10728,
            "byteOffset" : 108060
        },
        {
            "buffer" : 0,
            "byteLength" : 10728,
            "byteOffset" : 118788
        },
        {
            "buffer" : 0,
            "byteLength" : 7152,
            "byteOffset" : 129516
        },
        {
            "buffer" : 0,
            "byteLength" : 4548,
            "byteOffset" : 136668
        }
    ],
    "buffers" : [
        {
            "byteLength" : 141216,
            "uri" : "data:application/octet-stream;base64,"
        }
    ]
}
